<svg xmlns="http://www.w3.org/2000/svg" viewBox="0 0 360 360"><defs><style>.cls-1{fill:#939598;}.cls-2{fill:#fff;}</style></defs><title>dashboard icons</title><g id="Layer_2" data-name="Layer 2"><rect class="cls-1" x="65.17" y="72.33" width="232.87" height="12.03"/><circle class="cls-1" cx="68.22" cy="78.34" r="9.49"/><circle class="cls-1" cx="299.16" cy="78.34" r="9.49"/><polygon class="cls-1" points="184.45 273.81 120.56 233.77 120.56 106.9 248.34 106.9 248.34 233.77 184.45 273.81"/><path class="cls-1" d="M87.25,74.07V256.68l97,57.65,97-57.65V74.07ZM267.38,245.9l-82.43,50-82.43-50V87.57H267.38Z"/><polygon class="cls-2" points="248.34 106.9 248.34 233.77 184.45 273.81 120.56 233.77 120.56 106.9 248.34 106.9"/><polygon class="cls-1" points="248.34 106.9 248.34 233.77 184.45 273.81 120.56 233.77 120.56 106.9 248.34 106.9"/></g></svg>