<svg id="Layer_1" data-name="Layer 1" xmlns="http://www.w3.org/2000/svg" viewBox="0 0 360 360"><defs><style>.cls-1{fill:#939598;}</style></defs><title>button</title><g id="Layer_2" data-name="Layer 2"><path class="cls-1" d="M186,63.12a127,127,0,1,0,127,127h0A127,127,0,0,0,186,63.12Zm-34.8,72.65a19,19,0,1,1-19,19h0a19,19,0,0,1,19-19Zm.73,105.62a19,19,0,1,1,19-19,19,19,0,0,1-19,19h0Zm68.43-105.65a19,19,0,1,1-19,19h0a19,19,0,0,1,19-19Zm.74,105.62a19,19,0,1,1,19-19h0a19,19,0,0,1-19,19h-.05Z"/></g></svg>