<svg xmlns="http://www.w3.org/2000/svg" viewBox="0 0 360 360"><defs><style>.cls-1{fill:#939598;}</style></defs><title>dashboard icons</title><g id="Layer_3" data-name="Layer 3"><path class="cls-1" d="M269.93,116.53c0,21.82-38.27,39.52-87.15,39.52s-87.15-17.69-87.15-39.52S133.89,77,182.78,77,269.93,94.7,269.93,116.53Z"/><path class="cls-1" d="M265.09,268.51s1,36.84-82.31,38c-83.63,0-81.7-38-81.7-38l-1.36-33s5.6,35.68,83,35.5,83-35.5,83-35.5Z"/><path class="cls-1" d="M266.45,218.34s-1.07,36.84-84.36,38c-83.63,0-84.42-38-84.42-38l-2.73-33s9.69,35.68,87.12,35.5,85.75-35.5,85.75-35.5Z"/><path class="cls-1" d="M269.17,168.18s-3.79,36.84-87.08,38c-83.63,0-87.15-38-87.15-38l-1.36-33s11,35.68,88.48,35.5,88.48-35.5,88.48-35.5Z"/></g></svg>